# xmcd
# 
# Track frame offsets:
#     150
#     17645
#     32250
#     52740
#     74682
#     111845
#     135412
#     150247
#     171967
#     197222
# 
# Disc length: 2979
# 
# Revision: 21
# Processed by: cddbd v1.5.2PL0 Copyright (c) Steve Scherf et al.
# Submitted via: fre:ac v1.0.31
# 
DISCID=780ba10a
DTITLE=Tom Waits - Blue Valentine
DYEAR=1978
DGENRE=Blues
TTITLE0=Somewhere (From 'West Side Story')
TTITLE1=Red Shoes By The Drugstore
TTITLE2=Christmas Card From A Hooker in Minneapolis
TTITLE3=Romeo Is Bleeding
TTITLE4=$29.00
TTITLE5=Wrong Side Of The Road
TTITLE6=Whistlin' Past The Graveyard
TTITLE7=Kentucky Avenue
TTITLE8=A Sweet Little Bullet From A Pretty Blue Gun
TTITLE9=Blue Valentines
EXTD=YEAR: 1978
EXTT0=
EXTT1=
EXTT2=
EXTT3=
EXTT4=
EXTT5=
EXTT6=
EXTT7=
EXTT8=
EXTT9=
PLAYORDER=
